# xmcd
#
# Track frame offsets: 
#        150
#        4116
#        30864
#        61723
#        63310
#        77124
#        89184
#        111702
#        126276
#        144127
#        146984
#        167385
#        181653
#        196087
#        209572
#        234188
#        257742
#        277461
#        303985
#
# Disc length: 4285 seconds
#
# Revision: 0
# Processed by: cddbd v1.5.2PL0 Copyright (c) Steve Scherf et al.
# Submitted via: ExactAudioCopyFreeDBPlugin 1.0
#
DISCID=0d10bb13
DTITLE=John Mayall - Time Capsule
DYEAR=2000
DGENRE=Blues
TTITLE0=Introducction by John Mayall
TTITLE1=Art School Boogie
TTITLE2=The Narrow Path
TTITLE3=Coments by John Mayall
TTITLE4=My Old Man
TTITLE5=I'll Be Ready
TTITLE6=Classroom Blues
TTITLE7=How Long, How Long
TTITLE8=Too Close Together
TTITLE9=Coments by John Mayall
TTITLE10=Hillbilly Blues
TTITLE11=Maudie
TTITLE12=Twist All Night
TTITLE13=It Hurts Me Too
TTITLE14=The Hucklebuck
TTITLE15=Got My Mojo Working
TTITLE16=Soon Forgotten
TTITLE17=Sermonette
TTITLE18=No Rollin' Blues
EXTD=
EXTT0=
EXTT1=
EXTT2=
EXTT3=
EXTT4=
EXTT5=
EXTT6=
EXTT7=
EXTT8=
EXTT9=
EXTT10=
EXTT11=
EXTT12=
EXTT13=
EXTT14=
EXTT15=
EXTT16=
EXTT17=
EXTT18=
PLAYORDER=
